<?xml version="1.0" encoding="UTF-8"?><svg id="Layer_1" xmlns="http://www.w3.org/2000/svg" width="574.29" height="575.29" xmlns:xlink="http://www.w3.org/1999/xlink" viewBox="0 0 574.29 575.29"><defs><style>.cls-1{fill:url(#linear-gradient-5);}.cls-2{fill:url(#linear-gradient-6);}.cls-3{fill:url(#linear-gradient-4);}.cls-4{fill:url(#linear-gradient-3);}.cls-5{fill:url(#linear-gradient-2);}.cls-6{fill:url(#linear-gradient);}</style><linearGradient id="linear-gradient" x1="1" y1="201.81" x2="402.61" y2="201.81" gradientUnits="userSpaceOnUse"><stop offset="0" stop-color="#fff" stop-opacity=".25"/><stop offset=".24" stop-color="#fff" stop-opacity=".15"/><stop offset=".5" stop-color="#fff" stop-opacity=".07"/><stop offset=".75" stop-color="#fff" stop-opacity=".02"/><stop offset="1" stop-color="#fff" stop-opacity="0"/></linearGradient><linearGradient id="linear-gradient-2" x1="0" y1="201.81" x2="403.61" y2="201.81" gradientUnits="userSpaceOnUse"><stop offset="0" stop-color="#fff" stop-opacity=".25"/><stop offset=".01" stop-color="#fff" stop-opacity=".24"/><stop offset=".2" stop-color="#fff" stop-opacity=".14"/><stop offset=".37" stop-color="#fff" stop-opacity=".07"/><stop offset=".5" stop-color="#fff" stop-opacity=".05"/><stop offset=".63" stop-color="#fff" stop-opacity=".07"/><stop offset=".8" stop-color="#fff" stop-opacity=".14"/><stop offset=".99" stop-color="#fff" stop-opacity=".24"/><stop offset="1" stop-color="#fff" stop-opacity=".25"/></linearGradient><linearGradient id="linear-gradient-3" y1="373.49" y2="373.49" xlink:href="#linear-gradient"/><linearGradient id="linear-gradient-4" y1="373.49" y2="373.49" xlink:href="#linear-gradient-2"/><linearGradient id="linear-gradient-5" x1="171.67" y1="373.49" x2="573.29" y2="373.49" xlink:href="#linear-gradient"/><linearGradient id="linear-gradient-6" x1="170.67" y1="373.49" x2="574.29" y2="373.49" xlink:href="#linear-gradient-2"/></defs><path class="cls-6" d="M191.78,398.99c2.74-1,5.39-2.2,7.93-3.58,2.54-1.38,4.96-2.93,7.26-4.65,14.55-10.88,23.97-28.25,23.97-47.82v-54.46s0,0,0,0v-.02c0-31.76,25.75-57.5,57.51-57.5h0s54.48,0,54.48,0c32.96,0,59.68-26.72,59.68-59.68V60.68c0-32.96-26.72-59.68-59.68-59.68h-110.58c-7.21,0-14.12,1.28-20.52,3.62-2.74,1-5.39,2.2-7.93,3.58-2.54,1.38-4.96,2.93-7.26,4.65-14.55,10.88-23.97,28.25-23.97,47.82v54.46s0,0,0,0v.02c0,31.76-25.75,57.5-57.51,57.5h0s-54.48,0-54.48,0c-32.96,0-59.68,26.72-59.68,59.68v110.58c0,32.96,26.72,59.68,59.68,59.68h110.58c7.21,0,14.12-1.28,20.52-3.62Z"/><path class="cls-5" d="M342.93,1c32.96,0,59.68,26.72,59.68,59.68v110.58c0,32.96-26.72,59.68-59.68,59.68h-54.48c-31.76,0-57.5,25.74-57.51,57.5v.02s0,0,0,0v54.46c0,19.57-9.42,36.94-23.97,47.82-2.3,1.72-4.72,3.28-7.26,4.65-2.54,1.38-5.18,2.58-7.93,3.58-6.4,2.34-13.31,3.62-20.52,3.62H60.68c-32.96,0-59.68-26.72-59.68-59.68v-110.58c0-32.96,26.72-59.68,59.68-59.68h54.48c31.76,0,57.5-25.74,57.51-57.5v-.02s0,0,0,0v-54.46c0-19.57,9.42-36.94,23.97-47.82,2.3-1.72,4.72-3.28,7.26-4.65,2.54-1.38,5.18-2.58,7.93-3.58,6.4-2.34,13.31-3.62,20.52-3.62h110.58M342.93,0h-110.58c-7.17,0-14.19,1.24-20.86,3.68-2.76,1.01-5.47,2.24-8.06,3.64-2.56,1.39-5.04,2.98-7.38,4.73-15.49,11.58-24.37,29.31-24.37,48.62v54.46c0,31.18-25.36,56.52-56.51,56.52h-1s-53.48,0-53.48,0c-33.46,0-60.68,27.22-60.68,60.68v110.58c0,33.46,27.22,60.68,60.68,60.68h110.58c7.17,0,14.19-1.24,20.86-3.68,2.76-1.01,5.47-2.24,8.06-3.64,2.56-1.39,5.04-2.98,7.38-4.73,15.49-11.58,24.37-29.31,24.37-48.62v-54.46c0-31.18,25.36-56.52,56.51-56.52h1s53.48,0,53.48,0c33.46,0,60.68-27.22,60.68-60.68V60.68c0-33.46-27.22-60.68-60.68-60.68h0Z"/><path class="cls-4" d="M398.99,383.51c-1-2.74-2.2-5.39-3.58-7.93-1.38-2.54-2.93-4.96-4.65-7.26-10.88-14.55-28.25-23.97-47.82-23.97h-54.46s0,0,0,0h-.02c-31.76,0-57.5-25.75-57.5-57.51h0v-54.48c0-32.96-26.72-59.68-59.68-59.68H60.68c-32.96,0-59.68,26.72-59.68,59.68v110.58c0,7.21,1.28,14.12,3.62,20.52,1,2.74,2.2,5.39,3.58,7.93,1.38,2.54,2.93,4.96,4.65,7.26,10.88,14.55,28.25,23.97,47.82,23.97h54.46s0,0,0,0h.02c31.76,0,57.5,25.75,57.5,57.51h0v54.48c0,32.96,26.72,59.68,59.68,59.68h110.58c32.96,0,59.68-26.72,59.68-59.68v-110.58c0-7.21-1.28-14.12-3.62-20.52Z"/><path class="cls-3" d="M171.26,172.68c32.96,0,59.68,26.72,59.68,59.68v54.48h0c0,31.76,25.74,57.5,57.5,57.51h.02s0,0,0,0h54.46c19.57,0,36.94,9.42,47.82,23.97,1.72,2.3,3.28,4.72,4.65,7.26,1.38,2.54,2.58,5.18,3.58,7.93,2.34,6.4,3.62,13.31,3.62,20.52v110.58c0,32.96-26.72,59.68-59.68,59.68h-110.58c-32.96,0-59.68-26.72-59.68-59.68v-54.48h0c0-31.76-25.74-57.5-57.5-57.51h-.02s0,0,0,0h-54.46c-19.57,0-36.94-9.42-47.82-23.97-1.72-2.3-3.28-4.72-4.65-7.26-1.38-2.54-2.58-5.18-3.58-7.93-2.34-6.4-3.62-13.31-3.62-20.52v-110.58c0-32.96,26.72-59.68,59.68-59.68h110.58M171.26,171.68H60.68c-33.46,0-60.68,27.22-60.68,60.68v110.58c0,7.17,1.24,14.19,3.68,20.86,1.01,2.76,2.24,5.47,3.64,8.06,1.39,2.56,2.98,5.04,4.73,7.38,11.58,15.49,29.31,24.37,48.62,24.37h54.46c31.18,0,56.52,25.36,56.52,56.51v1h0v53.48c0,33.46,27.22,60.68,60.68,60.68h110.58c33.46,0,60.68-27.22,60.68-60.68v-110.58c0-7.17-1.24-14.19-3.68-20.86-1.01-2.76-2.24-5.47-3.64-8.06-1.39-2.56-2.98-5.04-4.73-7.38-11.58-15.49-29.31-24.37-48.62-24.37h-54.46c-31.18,0-56.52-25.36-56.52-56.51v-1h0v-53.48c0-33.46-27.22-60.68-60.68-60.68h0Z"/><path class="cls-1" d="M382.5,176.3c-2.74,1-5.39,2.2-7.93,3.58-2.54,1.38-4.96,2.93-7.26,4.65-14.55,10.88-23.97,28.25-23.97,47.82v54.46s0,0,0,0v.02c0,31.76-25.75,57.5-57.51,57.5h0s-54.48,0-54.48,0c-32.96,0-59.68,26.72-59.68,59.68v110.58c0,32.96,26.72,59.68,59.68,59.68h110.58c7.21,0,14.12-1.28,20.52-3.62,2.74-1,5.39-2.2,7.93-3.58,2.54-1.38,4.96-2.93,7.26-4.65,14.55-10.88,23.97-28.25,23.97-47.82v-54.46s0,0,0,0v-.02c0-31.76,25.75-57.5,57.51-57.5h0s54.48,0,54.48,0c32.96,0,59.68-26.72,59.68-59.68v-110.58c0-32.96-26.72-59.68-59.68-59.68h-110.58c-7.21,0-14.12,1.28-20.52,3.62Z"/><path class="cls-2" d="M513.61,172.68c32.96,0,59.68,26.72,59.68,59.68v110.58c0,32.96-26.72,59.68-59.68,59.68h-54.48c-31.76,0-57.5,25.74-57.51,57.5v.02s0,0,0,0v54.46c0,19.57-9.42,36.94-23.97,47.82-2.3,1.72-4.72,3.28-7.26,4.65-2.54,1.38-5.18,2.58-7.93,3.58-6.4,2.34-13.31,3.62-20.52,3.62h-110.58c-32.96,0-59.68-26.72-59.68-59.68v-110.58c0-32.96,26.72-59.68,59.68-59.68h54.48c31.76,0,57.5-25.74,57.51-57.5v-.02s0,0,0,0v-54.46c0-19.57,9.42-36.94,23.97-47.82,2.3-1.72,4.72-3.28,7.26-4.65s5.18-2.58,7.93-3.58c6.4-2.34,13.31-3.62,20.52-3.62h110.58M513.61,171.68h-110.58c-7.17,0-14.19,1.24-20.86,3.68-2.76,1.01-5.47,2.24-8.06,3.64-2.56,1.39-5.04,2.98-7.38,4.73-15.49,11.58-24.37,29.31-24.37,48.62v54.46c0,31.18-25.36,56.52-56.51,56.52h-1s-53.48,0-53.48,0c-33.46,0-60.68,27.22-60.68,60.68v110.58c0,33.46,27.22,60.68,60.68,60.68h110.58c7.17,0,14.19-1.24,20.86-3.68,2.76-1.01,5.47-2.24,8.06-3.64,2.56-1.39,5.04-2.98,7.38-4.73,15.49-11.58,24.37-29.31,24.37-48.62v-54.46c0-31.18,25.36-56.52,56.51-56.52h1s53.48,0,53.48,0c33.46,0,60.68-27.22,60.68-60.68v-110.58c0-33.46-27.22-60.68-60.68-60.68h0Z"/></svg>
