<?xml version="1.0" encoding="UTF-8"?>
<svg id="Layer_1" xmlns="http://www.w3.org/2000/svg" xmlns:xlink="http://www.w3.org/1999/xlink" version="1.1" viewBox="0 0 612 792">
  <!-- Generator: Adobe Illustrator 30.1.0, SVG Export Plug-In . SVG Version: 2.1.1 Build 136)  -->
  <defs>
    <style>
      .st0 {
        fill: url(#linear-gradient2);
      }

      .st1 {
        fill: url(#linear-gradient1);
      }

      .st2 {
        fill: url(#linear-gradient3);
      }

      .st3 {
        fill: #e1ff01;
      }

      .st4 {
        fill: url(#linear-gradient);
      }
    </style>
    <linearGradient id="linear-gradient" x1="8.6" y1="470.6" x2="410.2" y2="470.6" gradientUnits="userSpaceOnUse">
      <stop offset="0" stop-color="#fff" stop-opacity=".2"/>
      <stop offset=".2" stop-color="#fff" stop-opacity=".1"/>
      <stop offset=".5" stop-color="#fff" stop-opacity="0"/>
      <stop offset=".8" stop-color="#fff" stop-opacity="0"/>
      <stop offset="1" stop-color="#fff" stop-opacity="0"/>
    </linearGradient>
    <linearGradient id="linear-gradient1" x1="7.6" y1="470.6" x2="411.2" y2="470.6" gradientUnits="userSpaceOnUse">
      <stop offset="0" stop-color="#fff" stop-opacity=".2"/>
      <stop offset="0" stop-color="#fff" stop-opacity=".2"/>
      <stop offset=".2" stop-color="#fff" stop-opacity=".1"/>
      <stop offset=".4" stop-color="#fff" stop-opacity="0"/>
      <stop offset=".5" stop-color="#fff" stop-opacity="0"/>
      <stop offset=".6" stop-color="#fff" stop-opacity="0"/>
      <stop offset=".8" stop-color="#fff" stop-opacity=".1"/>
      <stop offset="1" stop-color="#fff" stop-opacity=".2"/>
      <stop offset="1" stop-color="#fff" stop-opacity=".2"/>
    </linearGradient>
    <linearGradient id="linear-gradient2" x1="179.8" y1="299.4" x2="581.4" y2="299.4" xlink:href="#linear-gradient"/>
    <linearGradient id="linear-gradient3" x1="178.8" y1="299.4" x2="582.4" y2="299.4" xlink:href="#linear-gradient1"/>
  </defs>
  <path class="st3" d="M199.4,496.1c2.7-1,5.4-2.2,7.9-3.6,2.5-1.4,5-2.9,7.3-4.7,14.6-10.9,24-28.3,24-47.8v-54.5s0,0,0,0h0c0-31.8,25.8-57.5,57.5-57.5h0s54.5,0,54.5,0c33,0,59.7-26.7,59.7-59.7v-110.6c0-33-26.7-59.7-59.7-59.7h-110.6c-7.2,0-14.1,1.3-20.5,3.6-2.7,1-5.4,2.2-7.9,3.6-2.5,1.4-5,2.9-7.3,4.7-14.6,10.9-24,28.3-24,47.8v54.5s0,0,0,0h0c0,31.8-25.8,57.5-57.5,57.5h0s-54.5,0-54.5,0c-33,0-59.7,26.7-59.7,59.7v110.6c0,33,26.7,59.7,59.7,59.7h110.6c7.2,0,14.1-1.3,20.5-3.6Z"/>
  <path class="st3" d="M390.1,273.4c-2.7,1-5.4,2.2-7.9,3.6-2.5,1.4-5,2.9-7.3,4.7-14.6,10.9-24,28.3-24,47.8v54.5s0,0,0,0h0c0,31.8-25.8,57.5-57.5,57.5h0s-54.5,0-54.5,0c-33,0-59.7,26.7-59.7,59.7v110.6c0,33,26.7,59.7,59.7,59.7h110.6c7.2,0,14.1-1.3,20.5-3.6,2.7-1,5.4-2.2,7.9-3.6,2.5-1.4,5-2.9,7.3-4.7,14.6-10.9,24-28.3,24-47.8v-54.5s0,0,0,0h0c0-31.8,25.8-57.5,57.5-57.5h0s54.5,0,54.5,0c33,0,59.7-26.7,59.7-59.7v-110.6c0-33-26.7-59.7-59.7-59.7h-110.6c-7.2,0-14.1,1.3-20.5,3.6Z"/>
  <g>
    <path class="st4" d="M406.6,480.6c-1-2.7-2.2-5.4-3.6-7.9-1.4-2.5-2.9-5-4.7-7.3-10.9-14.6-28.3-24-47.8-24h-54.5s0,0,0,0h0c-31.8,0-57.5-25.8-57.5-57.5h0v-54.5c0-33-26.7-59.7-59.7-59.7h-110.6c-33,0-59.7,26.7-59.7,59.7v110.6c0,7.2,1.3,14.1,3.6,20.5,1,2.7,2.2,5.4,3.6,7.9s2.9,5,4.7,7.3c10.9,14.6,28.3,24,47.8,24h54.5s0,0,0,0h0c31.8,0,57.5,25.8,57.5,57.5h0v54.5c0,33,26.7,59.7,59.7,59.7h110.6c33,0,59.7-26.7,59.7-59.7v-110.6c0-7.2-1.3-14.1-3.6-20.5Z"/>
    <path class="st1" d="M178.9,269.8c33,0,59.7,26.7,59.7,59.7v54.5h0c0,31.8,25.7,57.5,57.5,57.5h0s0,0,0,0h54.5c19.6,0,36.9,9.4,47.8,24,1.7,2.3,3.3,4.7,4.7,7.3,1.4,2.5,2.6,5.2,3.6,7.9,2.3,6.4,3.6,13.3,3.6,20.5v110.6c0,33-26.7,59.7-59.7,59.7h-110.6c-33,0-59.7-26.7-59.7-59.7v-54.5h0c0-31.8-25.7-57.5-57.5-57.5h0s0,0,0,0h-54.5c-19.6,0-36.9-9.4-47.8-24-1.7-2.3-3.3-4.7-4.7-7.3-1.4-2.5-2.6-5.2-3.6-7.9-2.3-6.4-3.6-13.3-3.6-20.5v-110.6c0-33,26.7-59.7,59.7-59.7h110.6M178.9,268.8h-110.6c-33.5,0-60.7,27.2-60.7,60.7v110.6c0,7.2,1.2,14.2,3.7,20.9,1,2.8,2.2,5.5,3.6,8.1,1.4,2.6,3,5,4.7,7.4,11.6,15.5,29.3,24.4,48.6,24.4h54.5c31.2,0,56.5,25.4,56.5,56.5v1h0v53.5c0,33.5,27.2,60.7,60.7,60.7h110.6c33.5,0,60.7-27.2,60.7-60.7v-110.6c0-7.2-1.2-14.2-3.7-20.9-1-2.8-2.2-5.5-3.6-8.1-1.4-2.6-3-5-4.7-7.4-11.6-15.5-29.3-24.4-48.6-24.4h-54.5c-31.2,0-56.5-25.4-56.5-56.5v-1h0v-53.5c0-33.5-27.2-60.7-60.7-60.7h0Z"/>
  </g>
  <g>
    <path class="st0" d="M577.8,309.4c-1-2.7-2.2-5.4-3.6-7.9-1.4-2.5-2.9-5-4.7-7.3-10.9-14.6-28.3-24-47.8-24h-54.5s0,0,0,0h0c-31.8,0-57.5-25.8-57.5-57.5h0v-54.5c0-33-26.7-59.7-59.7-59.7h-110.6c-33,0-59.7,26.7-59.7,59.7v110.6c0,7.2,1.3,14.1,3.6,20.5,1,2.7,2.2,5.4,3.6,7.9s2.9,5,4.7,7.3c10.9,14.6,28.3,24,47.8,24h54.5s0,0,0,0h0c31.8,0,57.5,25.8,57.5,57.5h0v54.5c0,33,26.7,59.7,59.7,59.7h110.6c33,0,59.7-26.7,59.7-59.7v-110.6c0-7.2-1.3-14.1-3.6-20.5Z"/>
    <path class="st2" d="M350,98.6c33,0,59.7,26.7,59.7,59.7v54.5h0c0,31.8,25.7,57.5,57.5,57.5h0s0,0,0,0h54.5c19.6,0,36.9,9.4,47.8,24,1.7,2.3,3.3,4.7,4.7,7.3,1.4,2.5,2.6,5.2,3.6,7.9,2.3,6.4,3.6,13.3,3.6,20.5v110.6c0,33-26.7,59.7-59.7,59.7h-110.6c-33,0-59.7-26.7-59.7-59.7v-54.5h0c0-31.8-25.7-57.5-57.5-57.5h0s0,0,0,0h-54.5c-19.6,0-36.9-9.4-47.8-24-1.7-2.3-3.3-4.7-4.7-7.3-1.4-2.5-2.6-5.2-3.6-7.9-2.3-6.4-3.6-13.3-3.6-20.5v-110.6c0-33,26.7-59.7,59.7-59.7h110.6M350,97.6h-110.6c-33.5,0-60.7,27.2-60.7,60.7v110.6c0,7.2,1.2,14.2,3.7,20.9,1,2.8,2.2,5.5,3.6,8.1,1.4,2.6,3,5,4.7,7.4,11.6,15.5,29.3,24.4,48.6,24.4h54.5c31.2,0,56.5,25.4,56.5,56.5v1h0v53.5c0,33.5,27.2,60.7,60.7,60.7h110.6c33.5,0,60.7-27.2,60.7-60.7v-110.6c0-7.2-1.2-14.2-3.7-20.9-1-2.8-2.2-5.5-3.6-8.1-1.4-2.6-3-5-4.7-7.4-11.6-15.5-29.3-24.4-48.6-24.4h-54.5c-31.2,0-56.5-25.4-56.5-56.5v-1h0v-53.5c0-33.5-27.2-60.7-60.7-60.7h0Z"/>
  </g>
</svg>